<?xml version="1.0" standalone="no"?><!DOCTYPE svg PUBLIC "-//W3C//DTD SVG 1.1//EN" "http://www.w3.org/Graphics/SVG/1.1/DTD/svg11.dtd"><svg t="1562899206626" class="icon" viewBox="0 0 1024 1024" version="1.1" xmlns="http://www.w3.org/2000/svg" p-id="1108" xmlns:xlink="http://www.w3.org/1999/xlink" width="200" height="200"><defs><style type="text/css"></style></defs><path d="M695 487.5H536.5V329c0-13.3-10.8-24-24-24s-24 10.7-24 24v158.5H343c-13.3 0-24 10.7-24 24s10.8 24 24 24h145.5V681c0 13.3 10.8 24 24 24s24-10.7 24-24V535.5H695c13.3 0 24-10.7 24-24s-10.7-24-24-24z" p-id="1109"></path><path d="M512 128c-211.7 0-384 172.3-384 384s172.3 384 384 384 384-172.3 384-384-172.3-384-384-384z m0 720c-185.3 0-336-150.7-336-336s150.7-336 336-336 336 150.7 336 336-150.7 336-336 336z" p-id="1110"></path></svg>