<?xml version="1.0" standalone="no"?><!DOCTYPE svg PUBLIC "-//W3C//DTD SVG 1.1//EN" "http://www.w3.org/Graphics/SVG/1.1/DTD/svg11.dtd"><svg t="1585710187129" class="icon" viewBox="0 0 1024 1024" version="1.1" xmlns="http://www.w3.org/2000/svg" p-id="2252" xmlns:xlink="http://www.w3.org/1999/xlink" width="32" height="32"><defs><style type="text/css"></style></defs><path d="M295.137055 312.516329a336.581593 336.581593 0 0 0-99.441659 239.886236v250.232767c0 23.758701 19.160242 42.982811 42.982811 42.98281h592.6263c23.758701 0 42.982811-19.22411 42.982811-42.98281v-228.006886a40.491979 40.491979 0 0 0-0.447073-5.875808 336.389991 336.389991 0 0 0-98.994586-256.172442 337.220268 337.220268 0 0 0-239.886236-99.441658A337.220268 337.220268 0 0 0 295.137055 312.516329z m493.184641 239.886236c0 6.195145-0.319337 12.64576-0.702542 18.96864-0.319337 3.832048 0 7.664097 0.638675 11.496145v176.785171H281.724885V552.402565A253.553876 253.553876 0 0 1 534.959423 299.104159a253.553876 253.553876 0 0 1 253.362273 253.298406z" p-id="2253"></path><path d="M405.755521 401.866926c-104.359454 86.859766-76.832572 236.692862-75.682958 243.143477a42.918943 42.918943 0 1 0 84.432802-16.222338c-0.191602-0.958012-18.521568-106.850286 46.112317-160.754435a43.110546 43.110546 0 0 0 5.428736-60.610234 42.663473 42.663473 0 0 0-60.290897-5.55647zM175.449406 362.141357a42.982811 42.982811 0 0 0 22.800689-79.515007L130.933776 240.346082a42.982811 42.982811 0 1 0-45.729112 72.936656l67.316319 42.280269c7.217025 4.470723 15.072724 6.57835 22.992291 6.57835zM264.225197 174.562583a43.046678 43.046678 0 0 0 79.067934-33.849762l-31.295063-73.000524a43.046678 43.046678 0 0 0-79.067934 33.849762L264.225197 174.562583z m248.444477-6.83382h2.235362a42.791208 42.791208 0 0 0 42.855076-40.747449L561.911498 47.65791a42.982811 42.982811 0 1 0-85.837887-4.470723l-4.151386 79.387271a43.110546 43.110546 0 0 0 40.683582 45.154305z m402.365093 720.87219H178.451178a42.918943 42.918943 0 1 0 0 85.965621h736.455854a42.918943 42.918943 0 1 0 0-85.965621z" p-id="2254"></path></svg>