<?xml version="1.0" standalone="no"?><!DOCTYPE svg PUBLIC "-//W3C//DTD SVG 1.1//EN" "http://www.w3.org/Graphics/SVG/1.1/DTD/svg11.dtd"><svg t="1562563718104" class="icon" viewBox="0 0 1024 1024" version="1.1" xmlns="http://www.w3.org/2000/svg" p-id="9785" xmlns:xlink="http://www.w3.org/1999/xlink" width="200" height="200"><defs><style type="text/css"></style></defs><path d="M522.437 561.034c-46.67 0-84.677 37.81-84.677 84.677 0 33.674 19.89 62.424 48.246 76.012v92.948c0 20.086 16.345 36.234 36.234 36.234 20.086 0 36.234-16.345 36.234-36.234v-92.948c28.554-13.588 48.246-42.338 48.246-76.012 0.197-46.868-37.612-84.677-84.283-84.677z m350.326-169.157H147.89c-39.975 0-72.467 32.492-72.467 72.468v483.249c0 39.975 32.492 72.468 72.467 72.468h724.874c39.975 0 72.468-32.493 72.468-72.468v-483.25c0-40.172-32.493-72.467-72.468-72.467z m0 507.274c0 39.975-8.27 48.246-48.246 48.246H196.332c-39.975 0-48.246-8.27-48.246-48.246V512.59c0-39.976 8.27-48.246 48.246-48.246h628.185c39.975 0 48.246 8.27 48.246 48.246v386.56zM167.778 355.446c20.087 0 36.431-15.95 37.022-36.037C237.49 180.972 361.748 77.785 510.228 77.785c115.987 0 217.009 63.212 271.36 156.75 5.71 12.8 18.51 21.662 33.28 21.662 20.086 0 36.43-16.345 36.43-36.43 0-7.878-2.56-15.164-6.695-21.072C777.846 83.298 653.391 5.12 510.228 5.12c-187.077 0-342.646 128.394-378.683 304.64-0.197 0.788-0.394 1.378-0.394 2.166-0.197 0.788-0.394 1.772-0.591 2.56h0.197c-0.197 1.182-0.197 2.363-0.197 3.545 0.197 20.677 16.738 37.415 37.218 37.415z" fill="" p-id="9786"></path></svg>