<?xml version="1.0" encoding="utf-8"?>
<!-- Generator: Adobe Illustrator 23.0.2, SVG Export Plug-In . SVG Version: 6.00 Build 0)  -->
<svg version="1.1" id="图层_1" xmlns="http://www.w3.org/2000/svg" xmlns:xlink="http://www.w3.org/1999/xlink" x="0px" y="0px"
	 viewBox="0 0 200 200" style="enable-background:new 0 0 200 200;" xml:space="preserve">
<style type="text/css">
	.st0{fill:#FFFFFF;}
</style>
<g>
	<circle class="st0" cx="100" cy="100" r="37"/>
</g>
<circle class="st0" cx="170" cy="30" r="30"/>
<circle class="st0" cx="30" cy="30" r="30"/>
<circle class="st0" cx="30" cy="170" r="30"/>
<path class="st0" d="M170,140c-16.57,0-30,13.43-30,30s13.43,30,30,30s30-13.43,30-30S186.57,140,170,140z M170,190
	c-11.05,0-20-8.95-20-20c0-11.05,8.95-20,20-20c11.05,0,20,8.95,20,20C190,181.05,181.05,190,170,190z"/>
<rect x="30" y="58" transform="matrix(0.7071 0.7071 -0.7071 0.7071 60.3536 -24.7064)" class="st0" width="60" height="5"/>
<rect x="107" y="58" transform="matrix(-0.7071 0.7071 -0.7071 -0.7071 276.6536 6.4063)" class="st0" width="60" height="5"/>
<rect x="30" y="137" transform="matrix(0.7071 -0.7071 0.7071 0.7071 -81.0678 83.285)" class="st0" width="60" height="5"/>
<rect x="103" y="133" transform="matrix(-0.7071 -0.7071 0.7071 -0.7071 131.2322 325.3582)" class="st0" width="60" height="5"/>
</svg>
