<?xml version="1.0" standalone="no"?><!DOCTYPE svg PUBLIC "-//W3C//DTD SVG 1.1//EN" "http://www.w3.org/Graphics/SVG/1.1/DTD/svg11.dtd"><svg t="1585710684242" class="icon" viewBox="0 0 1024 1024" version="1.1" xmlns="http://www.w3.org/2000/svg" p-id="8286" xmlns:xlink="http://www.w3.org/1999/xlink" width="32" height="32"><defs><style type="text/css"></style></defs><path d="M576 100.928l259.968 150.144a128 128 0 0 1 64 110.848v300.16a128 128 0 0 1-64 110.848L576 923.072a128 128 0 0 1-128 0l-259.968-150.144a128 128 0 0 1-64-110.848v-300.16a128 128 0 0 1 64-110.848L448 100.928a128 128 0 0 1 128 0z m-22.528 311.04h-53.76v265.28H418.816V485.76H366.08v191.488H293.376v52.224h431.104v-52.224H553.472V570.752h133.632V519.04H553.472V412.032zM531.456 254.08h-38.912c-59.392 65.536-133.632 120.32-223.232 164.352l28.672 52.224C387.072 422.976 458.24 366.656 512 302.144a688.96 688.96 0 0 0 211.968 167.936l29.184-52.224a715.264 715.264 0 0 1-221.696-163.84z" p-id="8287"></path></svg>