<?xml version="1.0" standalone="no"?><!DOCTYPE svg PUBLIC "-//W3C//DTD SVG 1.1//EN" "http://www.w3.org/Graphics/SVG/1.1/DTD/svg11.dtd"><svg t="1585710437302" class="icon" viewBox="0 0 1024 1024" version="1.1" xmlns="http://www.w3.org/2000/svg" p-id="5235" xmlns:xlink="http://www.w3.org/1999/xlink" width="32" height="32"><defs><style type="text/css"></style></defs><path d="M207.908291 1018.67772V708.613575h59.965236v257.411743H417.055332v52.652402H207.908291zM674.467075 743.715177a136.018705 136.018705 0 0 0-104.573521-43.145719 160.151056 160.151056 0 0 0-64.352935 12.431817 104.57352 104.57352 0 0 0-38.026735 28.520051 137.481272 137.481272 0 0 0-27.788768 42.414435 201.102924 201.102924 0 0 0-13.894384 80.44117 165.270039 165.270039 0 0 0 39.489302 117.005337A133.824855 133.824855 0 0 0 570.624838 1023.796703a135.287421 135.287421 0 0 0 104.57352-42.414435 171.120306 171.120306 0 0 0 38.758018-118.467904 168.926456 168.926456 0 0 0-39.489301-119.199187z m-45.339569 198.909073a77.516036 77.516036 0 0 1-117.736621 0 118.467904 118.467904 0 0 1-23.401067-80.441169A123.586888 123.586888 0 0 1 512.122169 781.010628a73.128336 73.128336 0 0 1 59.233952-26.326201 73.128336 73.128336 0 0 1 59.965235 26.326201 124.318171 124.318171 0 0 1 21.938501 80.441169 123.586888 123.586888 0 0 1-24.132351 81.172453zM894.583366 903.866232v-52.652402H1024.02052v124.318172a160.151056 160.151056 0 0 1-54.846252 33.639034 187.939823 187.939823 0 0 1-73.128336 14.625667 155.763356 155.763356 0 0 1-81.172452-20.475934 127.974588 127.974588 0 0 1-51.921119-59.233952 199.640357 199.640357 0 0 1-17.550801-82.63502 185.745973 185.745973 0 0 1 19.744651-87.022719 133.824855 133.824855 0 0 1 57.040102-58.502669 146.256672 146.256672 0 0 1 73.128336-15.356951 133.093571 133.093571 0 0 1 86.291437 24.863635 111.886354 111.886354 0 0 1 40.220584 67.278069l-59.965235 11.700533a65.084219 65.084219 0 0 0-23.401068-36.564168 68.740636 68.740636 0 0 0-43.145718-13.1631 80.44117 80.44117 0 0 0-62.890369 26.326201 114.080204 114.080204 0 0 0-22.669784 77.516036 123.586888 123.586888 0 0 0 23.401068 83.366303 73.128336 73.128336 0 0 0 61.427802 27.788768 103.110954 103.110954 0 0 0 38.026734-7.312834 125.049454 125.049454 0 0 0 32.176468-19.013367v-39.489302zM138.436372 219.385008h553.581503v73.128336H138.436372zM138.436372 438.770016h553.581503v73.128336H138.436372z" p-id="5236"></path><path d="M721.26921 0H103.334771A114.080204 114.080204 0 0 0 0.223817 120.661754v897.284682h68.740636V109.692504a37.295451 37.295451 0 0 1 34.370318-36.564168h617.934439a41.683151 41.683151 0 0 1 40.220584 39.489301V658.155024h68.740636V120.661754A119.199188 119.199188 0 0 0 721.26921 0z" p-id="5237"></path></svg>