<?xml version="1.0" encoding="utf-8"?>
<!-- Generator: Adobe Illustrator 23.0.4, SVG Export Plug-In . SVG Version: 6.00 Build 0)  -->
<svg version="1.1" id="图层_1" xmlns="http://www.w3.org/2000/svg" xmlns:xlink="http://www.w3.org/1999/xlink" x="0px" y="0px"
	 viewBox="0 0 200 200" style="enable-background:new 0 0 200 200;" xml:space="preserve">
<style type="text/css">
	.st0{fill:#666666;}
</style>
<path class="st0" d="M18.1,200c-3.9,0-7.1-3.1-7.3-7v-5.1c0-35.7,22.2-67.6,55.8-79.8l1.5-0.6l-1.4-1C50.5,95.9,40.6,77.8,40.5,58.3
	c0.1-15.6,6.4-30.6,17.5-41.5S84.2-0.2,99.8,0c32.4-0.3,58.9,25.7,59.3,58.1c0,19.6-9.9,37.8-26.3,48.4l-1.4,1l1.5,0.6
	c33.7,12.9,55.9,45.1,56.2,81.1v3.9c-0.4,3.7-3.5,6.6-7.3,6.6c-3.8,0-6.9-2.8-7.3-6.6c0.1-2.4,0.1-4.8,0-7.1
	c-2.2-39.3-35.1-69.9-74.5-69.4c-39.4-0.5-72.1,30.1-74.4,69.4c-0.1,2.2-0.1,4.4,0,6.6v1C25.1,197.2,21.9,200,18.1,200z M99.8,14.3
	C88,14.1,76.8,18.7,68.4,26.9S55.2,46.4,55.1,58.1c1,24,20.8,42.9,44.8,42.9s43.7-18.9,44.8-42.9C144.4,33.6,124.3,14,99.8,14.3z"/>
</svg>
