<?xml version="1.0" standalone="no"?><!DOCTYPE svg PUBLIC "-//W3C//DTD SVG 1.1//EN" "http://www.w3.org/Graphics/SVG/1.1/DTD/svg11.dtd"><svg t="1562563930570" class="icon" viewBox="0 0 1024 1024" version="1.1" xmlns="http://www.w3.org/2000/svg" p-id="11870" xmlns:xlink="http://www.w3.org/1999/xlink" width="200" height="200"><defs><style type="text/css"></style></defs><path d="M819.483835 327.853742c-11.905597-11.902156-31.20639-11.902156-43.117147 0-11.914198 11.903876-11.914198 31.190908 0 43.094784l110.327603 110.257075h-526.488497c-16.870132 0-30.494222 13.643012-30.494222 30.471859 0 16.839168 13.639572 30.47702 30.494222 30.47702h528.385892l-112.228439 112.137268c-11.912477 11.905597-11.912477 31.187468 0 43.091344a30.413372 30.413372 0 0 0 21.559434 8.929627 30.425413 30.425413 0 0 0 21.559434-8.929627l180.139021-184.762955-180.137301-184.766395zM603.399236 901.823567c0 20.362165-16.520929 36.869333-36.888255 36.869333H122.687336c-20.369046 0-36.886535-16.502007-36.886535-36.869333l0.951278-779.311693c0-20.355285 16.514048-36.869333 36.902017-36.869332h442.858605c20.365606 0 36.884815 16.514048 36.884814 36.869332v237.107327h61.401296V85.336344c0-33.662855-27.311827-60.95404-60.995325-60.95404H85.370748c-33.685218 0-60.990164 27.291185-60.990164 60.95404v853.330753c0 33.659415 27.306667 60.95404 60.990164 60.954039h518.434458c33.685218 0 60.997045-27.292905 60.997045-60.954039V663.455324l-61.401295-0.08257V901.821847h-0.00172v0.00172z" p-id="11871"></path></svg>