<?xml version="1.0" encoding="utf-8"?>
<!-- Generator: Adobe Illustrator 23.0.4, SVG Export Plug-In . SVG Version: 6.00 Build 0)  -->
<svg version="1.1" id="图层_1" xmlns="http://www.w3.org/2000/svg" xmlns:xlink="http://www.w3.org/1999/xlink" x="0px" y="0px"
	 viewBox="0 0 200 200" style="enable-background:new 0 0 200 200;" xml:space="preserve">
<style type="text/css">
	.st0{fill:#666666;}
</style>
<path class="st0" d="M168.5,52.9H36.8c-5.7,0-10.3-4.6-10.3-10.3v0c0-5.7,4.6-10.3,10.3-10.3h131.7c5.7,0,10.3,4.6,10.3,10.3v0
	C178.8,48.3,174.2,52.9,168.5,52.9z"/>
<path class="st0" d="M168.5,110.3H36.8c-5.7,0-10.3-4.6-10.3-10.3v0c0-5.7,4.6-10.3,10.3-10.3h131.7c5.7,0,10.3,4.6,10.3,10.3v0
	C178.8,105.7,174.2,110.3,168.5,110.3z"/>
<path class="st0" d="M168.5,167.7H36.8c-5.7,0-10.3-4.6-10.3-10.3v0c0-5.7,4.6-10.3,10.3-10.3h131.7c5.7,0,10.3,4.6,10.3,10.3v0
	C178.8,163,174.2,167.7,168.5,167.7z"/>
</svg>
