<?xml version="1.0" encoding="utf-8"?>
<!-- Generator: Adobe Illustrator 23.0.4, SVG Export Plug-In . SVG Version: 6.00 Build 0)  -->
<svg version="1.1" id="图层_1" xmlns="http://www.w3.org/2000/svg" xmlns:xlink="http://www.w3.org/1999/xlink" x="0px" y="0px"
	 viewBox="0 0 200 200" style="enable-background:new 0 0 200 200;" xml:space="preserve">
<style type="text/css">
	.st0{fill:#666666;}
</style>
<path class="st0" d="M168.5,65.2h-9.6c-3.4-29.4-28.5-52.3-58.8-52.3c-30.3,0-55.4,22.9-58.8,52.3h-9.8c-7.3,0-13.4,6-13.4,13.4
	v92.9c0,7.3,6,13.4,13.4,13.4h137c7.3,0,13.4-6,13.4-13.4V78.5C181.9,71.2,175.9,65.2,168.5,65.2L168.5,65.2z M100.2,28
	c22,0,40.2,16.1,43.6,37.2H56.6C59.9,44.1,78.2,28,100.2,28z M166.8,169.7H33.3V80.3h133.5V169.7z"/>
<path class="st0" d="M93.5,126.7v18.9c0,3.8,3,6.8,6.8,6.8c3.8,0,6.8-3,6.8-6.8v-19c4.7-2.5,7.7-7.5,7.7-12.9
	c0-8-6.5-14.6-14.6-14.6c-8,0-14.6,6.5-14.6,14.6C85.5,119.4,88.8,124.3,93.5,126.7z"/>
</svg>
