<?xml version="1.0" standalone="no"?><!DOCTYPE svg PUBLIC "-//W3C//DTD SVG 1.1//EN" "http://www.w3.org/Graphics/SVG/1.1/DTD/svg11.dtd"><svg t="1585710533629" class="icon" viewBox="0 0 1024 1024" version="1.1" xmlns="http://www.w3.org/2000/svg" p-id="6730" xmlns:xlink="http://www.w3.org/1999/xlink" width="32" height="32"><defs><style type="text/css"></style></defs><path d="M631.466667 399.36c0 66.56-54.613333 121.173333-119.466667 121.173333s-119.466667-54.613333-119.466667-121.173333c0-66.56 54.613333-119.466667 119.466667-119.466667s119.466667 52.906667 119.466667 119.466667zM1024 128v512c0 69.973333-58.026667 128-128 128H563.2v153.6h256c29.013333 0 51.2 22.186667 51.2 51.2s-22.186667 51.2-51.2 51.2H204.8c-29.013333 0-51.2-22.186667-51.2-51.2s22.186667-51.2 51.2-51.2h256v-153.6H128C58.026667 768 0 709.973333 0 640v-512C0 58.026667 58.026667 0 128 0h768C965.973333 0 1024 58.026667 1024 128zM771.413333 433.493333c1.706667-5.12-1.706667-10.24-6.826666-11.946666l-66.56-15.36v-6.826667c0-30.72-8.533333-59.733333-22.186667-85.333333l52.906667-42.666667c5.12-3.413333 5.12-10.24 1.706666-13.653333L703.146667 221.866667c-3.413333-5.12-10.24-5.12-13.653334-1.706667l-51.2 40.96c-23.893333-22.186667-52.906667-37.546667-87.04-44.373333V153.6c0-5.12-5.12-10.24-10.24-10.24H494.933333c-5.12 0-10.24 5.12-10.24 10.24v61.44c-34.133333 5.12-66.56 20.48-92.16 42.666667l-46.08-37.546667c-5.12-3.413333-10.24-3.413333-13.653333 1.706667l-29.013333 35.84c-3.413333 5.12-3.413333 10.24 1.706666 13.653333l46.08 37.546667c-15.36 27.306667-23.893333 58.026667-23.893333 90.453333 0 3.413333 0 6.826667 1.706667 10.24l-56.32 13.653333c-5.12 1.706667-8.533333 6.826667-6.826667 11.946667l10.24 44.373333c1.706667 5.12 6.826667 8.533333 11.946667 6.826667l56.32-13.653333c13.653333 32.426667 37.546667 59.733333 64.853333 80.213333l-25.6 52.906667c-1.706667 5.12 0 11.946667 5.12 13.653333l40.96 20.48c5.12 1.706667 11.946667 0 13.653333-5.12l27.306667-54.613333c13.653333 3.413333 29.013333 6.826667 44.373333 6.826666 18.773333 0 35.84-3.413333 52.906667-8.533333l29.013333 58.026667c1.706667 5.12 8.533333 6.826667 13.653334 5.12l40.96-20.48c5.12-1.706667 6.826667-8.533333 5.12-13.653334l-29.013334-58.026666c25.6-20.48 46.08-46.08 59.733334-75.093334l64.853333 15.36c5.12 1.706667 10.24-1.706667 11.946667-6.826666l6.826666-49.493334z" p-id="6731"></path></svg>